{"title":"The Big Bang Theory S04e12 - The Bus Pants Utilization [XviD - E","uid":6087740,"size":183793282,"categoryP":"video","categoryS":"tv_shows","magnet":"?xt=urn:btih:fa43f8c799010f02217e808158f40b1698f6829a&amp;dn=The+Big+Bang+Theory+S04e12+-+The+Bus+Pants+Utilization+%5BXviD+-+E&amp;tr=udp%3A%2F%2Ftracker.openbittorrent.com%3A80&amp;tr=udp%3A%2F%2Fopen.demonii.com%3A1337&amp;tr=udp%3A%2F%2Ftracker.coppersurfer.tk%3A6969&amp;tr=udp%3A%2F%2Fexodus.desync.com%3A6969","seeders":0,"leechers":1,"uploader":"Cer8one","files":1,"time":1294408169,"description":"info: http://forum.tntvillage.scambioetico.org/tntforum/index.php?showtopic=235556\n\n[IMG]http://img839.imageshack.us/img839/672/episode.gif[/IMG]\n\nEpisode 12 - The Bus Pants Utilization\n\n[IMG]http://img842.imageshack.us/img842/6425/reportpq.gif[/IMG][/align]\n\nGeneral\nGeneral\nComplete name                    : the.big.bang.theory.s04e12.proper.hdtv.xvid-2hd.avi\nFormat                           : AVI\nFormat/Info                      : Audio Video Interleave\nFile size                        : 175 MiB\nDuration                         : 21mn 6s\nOverall bit rate                 : 1 161 Kbps\nWriting application              : MEncoder SVN-r32669-4.3.2\nWriting library                  : MPlayer\n\nVideo\nID                               : 0\nFormat                           : MPEG-4 Visual\nFormat profile                   : Advanced Simple@L5\nFormat settings, BVOP            : Yes\nFormat settings, QPel            : No\nFormat settings, GMC             : No warppoints\nFormat settings, Matrix          : Default (H.263)\nCodec ID                         : XVID\nCodec ID/Hint                    : XviD\nDuration                         : 21mn 6s\nBit rate                         : 1 023 Kbps\nWidth                            : 624 pixels\nHeight                           : 352 pixels\nDisplay aspect ratio             : 16:9\nFrame rate                       : 23.976 fps\nColor space                      : YUV\nChroma subsampling               : 4:2:0\nBit depth                        : 8 bits\nScan type                        : Progressive\nBits/(Pixel*Frame)               : 0.194\nStream size                      : 154 MiB (88%)\nWriting library                  : XviD 1.2.1 (UTC 2008-12-04)\n\nAudio\nID                               : 1\nFormat                           : MPEG Audio\nFormat version                   : Version 1\nFormat profile                   : Layer 3\nMode                             : Joint stereo\nCodec ID                         : 55\nCodec ID/Hint                    : MP3\nDuration                         : 21mn 6s\nBit rate mode                    : Variable\nBit rate                         : 128 Kbps\nChannel(s)                       : 2 channels\nSampling rate                    : 48.0 KHz\nStream size                      : 19.0 MiB (11%)\nAlignment                        : Aligned on interleaves\nInterleave, duration             : 24 ms (0.58 video frame)\nInterleave, preload duration     : 522 ms\n\n[IMG]http://img153.imageshack.us/img153/7241/screenshotx.gif[/IMG]\n\n[IMG]http://img687.imageshack.us/img687/2828/vlcsnap2011010710h47m54.png[/IMG]\n\n[IMG]http://img529.imageshack.us/img529/6291/vlcsnap2011010710h48m25.png[/IMG]\n","torrent":{"xt":"urn:btih:fa43f8c799010f02217e808158f40b1698f6829a","amp;dn":"The+Big+Bang+Theory+S04e12+-+The+Bus+Pants+Utilization+%5BXviD+-+E","amp;tr":["udp%3A%2F%2Ftracker.openbittorrent.com%3A80","udp%3A%2F%2Fopen.demonii.com%3A1337","udp%3A%2F%2Ftracker.coppersurfer.tk%3A6969","udp%3A%2F%2Fexodus.desync.com%3A6969"],"infoHash":"fa43f8c799010f02217e808158f40b1698f6829a","infoHashBuffer":{"type":"Buffer","data":[250,67,248,199,153,1,15,2,33,126,128,129,88,244,11,22,152,246,130,154]},"announce":[],"urlList":[]}}